<?xml version="1.0" encoding="UTF-8" standalone="no"?>
<!DOCTYPE svg PUBLIC "-//W3C//DTD SVG 1.1//EN" "http://www.w3.org/Graphics/SVG/1.1/DTD/svg11.dtd">
<svg width="100%" height="100%" viewBox="0 0 211 232" version="1.1" xmlns="http://www.w3.org/2000/svg" xmlns:xlink="http://www.w3.org/1999/xlink" xml:space="preserve" style="fill-rule:evenodd;clip-rule:evenodd;stroke-linejoin:round;stroke-miterlimit:1.41421;">
    <g transform="matrix(1,0,0,1,-43.1844,-32.1)">
        <path d="M140.84,262.64C131.89,259.44 129.97,255.09 126.3,229.6C122.03,199.97 121.1,181.63 123.57,175.82C126.85,168.12 135.75,163.75 148.2,163.7C160.55,163.65 169.53,168.06 172.83,175.82C175.31,181.62 174.38,199.97 170.11,229.6C167.21,250.3 165.61,255.53 161.61,259.05C156.11,263.92 148.31,265.27 140.91,262.65L140.84,262.64ZM102.61,232.24C71.71,217.04 51.91,191.32 44.71,157.1C42.91,148.27 42.61,127.2 44.31,119.1C48.81,97.35 57.41,80.34 71.71,65.3C92.31,43.58 118.81,32.1 148.31,32.1C177.51,32.1 203.91,43.37 224.01,64.44C239.31,80.34 247.91,97.17 252.31,119.34C253.81,126.72 253.81,146.84 252.41,155.14C247.81,181.38 233.21,205.28 211.91,221.34C204.31,227.08 185.71,237.1 182.71,237.1C181.61,237.1 181.51,235.96 182.01,231.35C182.91,223.95 183.81,222.41 188.01,220.65C194.71,217.85 206.11,209.73 213.11,202.71C225.21,190.71 234.11,175.01 238.21,158.51C240.81,148.21 240.51,125.31 237.61,114.71C228.51,81.01 201.01,54.81 167.31,47.81C157.51,45.81 139.71,45.81 129.81,47.81C95.71,54.81 67.51,82.31 58.91,116.91C56.61,126.31 56.61,149.21 58.91,158.61C64.61,181.51 79.41,202.51 98.81,215.01C102.61,217.51 107.21,220.11 109.11,220.91C113.31,222.71 114.21,224.21 115.01,231.61C115.51,236.11 115.41,237.41 114.31,237.41C113.61,237.41 108.51,235.21 103.11,232.61L102.61,232.24ZM103.01,191.56C92.61,183.26 83.41,168.54 79.61,154.1C77.31,145.38 77.31,128.8 79.71,120.1C86.01,96.62 103.31,78.42 127.31,69.87C135.51,66.97 153.71,66.32 163.81,68.55C198.61,76.3 223.31,111.15 218.51,145.72C216.61,159.65 211.81,171.09 203.31,181.72C199.11,187.09 188.91,196.1 187.11,196.1C186.81,196.1 186.51,192.7 186.51,188.56L186.51,181L191.71,174.8C211.31,151.32 209.91,118.52 188.51,97C180.21,88.62 170.61,83.7 158.21,81.43C150.21,79.95 148.51,79.95 140.11,81.33C127.36,83.41 117.48,88.35 108.71,97.03C87.21,118.33 85.81,151.3 105.41,174.8L110.57,181L110.57,188.6C110.57,192.8 110.24,196.2 109.83,196.2C109.43,196.2 106.53,194.2 103.43,191.7L103.01,191.56ZM137.71,150.73C128.81,146.59 124.01,138.78 123.91,128.6C123.91,119.45 129.01,111.47 137.81,106.8C143.41,103.86 153.31,103.86 158.91,106.82C165.01,109.99 170.01,116.14 171.91,122.56C177.71,142.28 156.81,159.56 137.91,150.73L137.71,150.73Z" style="fill-rule:nonzero;"/>
    </g>
</svg>
