<?xml version="1.0" encoding="UTF-8" standalone="no"?>
<!DOCTYPE svg PUBLIC "-//W3C//DTD SVG 1.1//EN" "http://www.w3.org/Graphics/SVG/1.1/DTD/svg11.dtd">
<svg width="100%" height="100%" viewBox="0 0 1113 1113" version="1.1" xmlns="http://www.w3.org/2000/svg" xmlns:xlink="http://www.w3.org/1999/xlink" xml:space="preserve" style="fill-rule:evenodd;clip-rule:evenodd;stroke-linejoin:round;stroke-miterlimit:1.41421;">
    <path d="M1050.68,-0.001C1084.57,-0.001 1112.06,27.474 1112.06,61.378L1112.06,1050.69C1112.06,1084.58 1084.57,1112.06 1050.68,1112.06L767.3,1112.06L767.3,681.416L911.854,681.416L933.496,513.583L767.3,513.583L767.3,406.429C767.3,357.837 780.792,324.724 850.475,324.724L939.35,324.683L939.35,174.574C923.975,172.533 871.221,167.962 809.846,167.962C681.708,167.962 593.988,246.174 593.988,389.812L593.988,513.583L449.067,513.583L449.067,681.416L593.988,681.416L593.988,1112.06L61.375,1112.06C27.47,1112.06 0,1084.58 0,1050.69L0,61.378C0,27.474 27.47,-0.001 61.375,-0.001L1050.68,-0.001Z"/>
</svg>
